<svg id="Слой_1" data-name="Слой 1" xmlns="http://www.w3.org/2000/svg" xmlns:xlink="http://www.w3.org/1999/xlink" viewBox="0 0 29 29"><defs><style>.cls-1{fill:none;}.cls-2{clip-path:url(#clip-path);}.cls-3{fill:#333;}</style><clipPath id="clip-path"><rect class="cls-1" width="28.07" height="28.07"/></clipPath></defs><title>12Монтажная область 1</title><g class="cls-2"><path class="cls-3" d="M26.63,3.51a1,1,0,0,1,.94,1.35l-.13.33a1,1,0,0,1-.94.66H25.32a.5.5,0,0,0-.48.36l-3.75,13a1,1,0,0,1-1,.72H6.06a1,1,0,0,1-.92-.61L.58,8.41A1,1,0,0,1,1.51,7H18.34a1,1,0,0,1,1,1.27l-.09.34a1,1,0,0,1-1,.73h-14a.49.49,0,0,0-.46.69l3,7.19a.51.51,0,0,0,.47.3H18.77a.5.5,0,0,0,.48-.36L23,4.24a1,1,0,0,1,1-.73ZM9.94,21.05a1.76,1.76,0,1,0,1.76,1.76A1.75,1.75,0,0,0,9.94,21.05Zm5.85,0a1.76,1.76,0,1,0,1.75,1.76A1.76,1.76,0,0,0,15.79,21.05Z"/></g></svg>