<svg width="29" height="29" viewBox="0 0 29 29" fill="none" xmlns="http://www.w3.org/2000/svg">
<g clip-path="url(#clip0_22_943)">
<path d="M26.6273 3.50851C27.3259 3.50851 27.8103 4.20518 27.567 4.86006L27.4429 5.19421C27.297 5.58698 26.9222 5.84757 26.5032 5.84757H25.3208C25.0977 5.84757 24.9014 5.99507 24.8394 6.20941L21.0907 19.1582C20.9666 19.5869 20.5741 19.8819 20.1278 19.8819H6.06438C5.66058 19.8819 5.29621 19.6396 5.13999 19.2672L0.583772 8.40737C0.306621 7.74677 0.791783 7.01709 1.50816 7.01709H18.3383C19.0029 7.01709 19.4835 7.65199 19.3031 8.29162L19.2089 8.62577C19.0871 9.05777 18.6929 9.35614 18.2441 9.35614H4.27228C3.91408 9.35614 3.6715 9.72099 3.81009 10.0513L6.82438 17.2355C6.9025 17.4217 7.08468 17.5428 7.28658 17.5428H18.7712C18.9949 17.5428 19.1915 17.3945 19.2531 17.1794L22.9551 4.23532C23.0781 3.80509 23.4714 3.50851 23.9189 3.50851H26.6273ZM9.94146 21.0514C8.97309 21.0514 8.18717 21.8373 8.18717 22.8057C8.18717 23.7752 8.97309 24.56 9.94146 24.56C10.9098 24.56 11.6957 23.7752 11.6957 22.8057C11.6957 21.8373 10.9098 21.0514 9.94146 21.0514ZM15.7891 21.0514C14.8207 21.0514 14.0348 21.8362 14.0348 22.8057C14.0348 23.7752 14.8207 24.56 15.7891 24.56C16.7575 24.56 17.5434 23.7752 17.5434 22.8057C17.5434 21.8373 16.7575 21.0514 15.7891 21.0514Z" fill="#333333"/>
</g>
<defs>
<clipPath id="clip0_22_943">
<rect width="28.0686" height="28.0686" fill="white"/>
</clipPath>
</defs>
</svg>
