<svg width="25" height="25" viewBox="0 0 25 25" fill="none" xmlns="http://www.w3.org/2000/svg">
<g clip-path="url(#clip0_22_935)">
<path fill-rule="evenodd" clip-rule="evenodd" d="M9.53513 13.5331C10.2496 14.0082 11.1073 14.285 12.0296 14.285C12.9519 14.285 13.8095 14.0082 14.524 13.5331C15.7395 12.725 16.5407 11.343 16.5407 9.77395C16.5407 7.28258 14.5209 5.26292 12.0296 5.26292C9.5382 5.26292 7.51855 7.28258 7.51855 9.77395C7.51855 11.343 8.31964 12.725 9.53513 13.5331ZM12.0296 12.0295C13.2753 12.0295 14.2851 11.0196 14.2851 9.77395C14.2851 8.52826 13.2753 7.51844 12.0296 7.51844C10.7839 7.51844 9.77407 8.52826 9.77407 9.77395C9.77407 11.0196 10.7839 12.0295 12.0296 12.0295Z" fill="#333333"/>
<path fill-rule="evenodd" clip-rule="evenodd" d="M24.0588 12.0293C24.0588 18.673 18.6731 24.0587 12.0294 24.0587C5.38575 24.0587 0 18.673 0 12.0293C0 5.38564 5.38575 -0.000109673 12.0294 -0.000109673C18.6731 -0.000109673 24.0588 5.38564 24.0588 12.0293ZM17.292 20.2669C15.7728 21.2395 13.967 21.8032 12.0294 21.8032C10.0918 21.8032 8.28584 21.2393 6.76671 20.2669C6.7842 19.0363 7.78722 18.044 9.022 18.044H15.0367C16.2714 18.044 17.2745 19.0363 17.292 20.2669ZM19.2314 18.6369C18.5805 16.9958 16.9942 15.8274 15.1304 15.7894C15.0993 15.7888 15.068 15.7885 15.0367 15.7885H9.022C8.99066 15.7885 8.95938 15.7888 8.9282 15.7894C7.06447 15.8274 5.4783 16.9958 4.82728 18.6368C3.2303 16.8971 2.25551 14.577 2.25551 12.0293C2.25551 6.63133 6.63144 2.2554 12.0294 2.2554C17.4275 2.2554 21.8033 6.63133 21.8033 12.0293C21.8033 14.5771 20.8285 16.8972 19.2314 18.6369Z" fill="#333333"/>
</g>
<defs>
<clipPath id="clip0_22_935">
<rect width="24.0588" height="24.0588" fill="white"/>
</clipPath>
</defs>
</svg>
